<svg width="21" height="23" viewBox="0 0 21 23" fill="none" xmlns="http://www.w3.org/2000/svg">
<path d="M20.4821 13.4286L19.416 12.3625C19.0822 12.0286 18.6396 11.8456 18.169 11.8456C18.1679 11.8456 18.1669 11.8456 18.1669 11.8456C17.6952 11.8456 17.2503 12.0308 16.9186 12.3657L11.0056 18.3057C10.8537 18.4565 10.7697 18.6622 10.7697 18.8754V21.2682C10.7697 21.714 11.1316 22.0758 11.5774 22.0758H13.9714C14.1847 22.0758 14.3901 21.9908 14.5409 21.84L20.481 15.9269C20.8159 15.5942 20.9989 15.1505 21 14.6788C20.9989 14.2071 20.8159 13.7635 20.4821 13.4286ZM18.168 13.4609C18.196 13.4609 18.2368 13.4684 18.2734 13.505L19.3395 14.5711C19.3761 14.6077 19.3836 14.6497 19.3836 14.6777C19.3836 14.7057 19.3761 14.7466 19.3395 14.7833L18.6546 15.4649L17.3795 14.1899L18.0612 13.505C18.0989 13.4684 18.14 13.4609 18.168 13.4609ZM13.6365 20.4605H12.384V19.2081L16.2403 15.3346L17.5099 16.6043L13.6365 20.4605ZM8.34574 19.3836H4.03826C2.34004 19.3836 1.6153 18.6589 1.6153 16.9607V4.03826C1.6153 2.34004 2.34004 1.6153 4.03826 1.6153H9.69182V4.03826C9.69182 6.64213 11.1262 8.07652 13.7301 8.07652H16.153V9.4226C16.153 9.86843 16.5149 10.2303 16.9607 10.2303C17.4065 10.2303 17.7683 9.86843 17.7683 9.4226V7.26887C17.7683 7.05457 17.6833 6.84889 17.5315 6.69813L11.0702 0.236913C10.9184 0.085074 10.7138 0 10.4995 0H4.03826C1.43439 0 0 1.43439 0 4.03826V16.9607C0 19.5646 1.43439 20.9989 4.03826 20.9989H8.34574C8.79156 20.9989 9.15339 20.6371 9.15339 20.1913C9.15339 19.7455 8.79156 19.3836 8.34574 19.3836ZM11.3071 4.03826V2.75787L15.0104 6.46122H13.7301C12.0319 6.46122 11.3071 5.73648 11.3071 4.03826ZM5.11513 9.69182C4.6693 9.69182 4.30748 10.0536 4.30748 10.4995C4.30748 10.9453 4.6693 11.3071 5.11513 11.3071H12.6532C13.099 11.3071 13.4609 10.9453 13.4609 10.4995C13.4609 10.0536 13.099 9.69182 12.6532 9.69182H5.11513ZM9.4226 13.9993H5.11513C4.6693 13.9993 4.30748 14.3611 4.30748 14.807C4.30748 15.2528 4.6693 15.6146 5.11513 15.6146H9.4226C9.86843 15.6146 10.2303 15.2528 10.2303 14.807C10.2303 14.3611 9.86843 13.9993 9.4226 13.9993Z" fill="#0A6AB1"/>
</svg>
