<svg width="44" height="44" viewBox="0 0 44 44" fill="none" xmlns="http://www.w3.org/2000/svg">
<path fill-rule="evenodd" clip-rule="evenodd" d="M29.3332 12.6904V24.9316C29.3332 26.2617 28.8308 27.3149 28.0049 28.0143C27.1992 28.6954 26.1597 28.9768 25.1651 28.9347C24.0156 28.887 22.8148 28.3874 22.0081 27.4561C21.8 29.1336 22.3995 30.2492 22.6718 30.5434L23.2951 31.2153L21.9513 32.462L21.3279 31.7901C20.5818 30.9853 19.7806 29.0887 20.293 26.6109C19.5089 26.776 18.6991 26.7779 17.9143 26.6164C17.092 26.4423 16.2835 26.0673 15.6712 25.4376C15.0442 24.7932 14.6665 23.9251 14.6665 22.8801C14.6665 21.3731 15.2046 20.2841 16.1662 19.4884C17.0553 18.7523 18.2626 18.3105 19.4836 17.9154C19.7696 17.8238 20.062 17.7321 20.3599 17.6377C22.6873 16.9071 25.3319 16.0766 27.8243 13.9683L29.3332 12.6904ZM22.8808 24.8748C23.2667 24.1671 23.7974 23.4099 24.5143 22.6133L25.1284 21.9323L23.7653 20.7058L23.1512 21.3868C22.2437 22.3952 21.5818 23.376 21.1125 24.3064C20.4232 24.8124 19.314 25.0388 18.2938 24.8225C17.741 24.7052 17.2891 24.4714 16.9848 24.1588C16.6951 23.8618 16.4998 23.4548 16.4998 22.8792C16.4998 21.8837 16.8207 21.3254 17.3349 20.8992C17.9207 20.4152 18.8053 20.0613 20.0483 19.6589C20.3187 19.5718 20.6028 19.4829 20.8971 19.3903C22.8028 18.7954 25.1688 18.0566 27.4998 16.5019V24.9316C27.4998 25.7703 27.2001 26.2938 26.8215 26.6137C26.4228 26.951 25.8563 27.1288 25.2421 27.1032C24.0248 27.0528 22.9413 26.2562 22.8808 24.8748Z" fill="white"/>
<path fill-rule="evenodd" clip-rule="evenodd" d="M21.9999 37.5833L21.6003 38.4083L21.5966 38.4065L21.5856 38.401L21.5462 38.3817L21.3995 38.3084C21.273 38.2442 21.0897 38.1489 20.8578 38.0242C18.1104 36.5377 15.5276 34.7655 13.1523 32.7369C8.96858 29.1372 4.58325 23.7994 4.58325 17.1637C4.58325 14.1818 5.5705 11.2933 7.26084 9.13367C8.95667 6.96942 11.3959 5.5 14.2651 5.5C17.6733 5.5 20.2601 7.43142 21.9999 10.1548C23.7407 7.43233 26.3266 5.5 29.7348 5.5C32.6039 5.5 35.0432 6.96942 36.7381 9.13458C38.4302 11.2933 39.4166 14.1808 39.4166 17.1646C39.4166 23.5473 35.0239 28.886 30.854 32.5389C28.3195 34.7412 25.5593 36.6696 22.6196 38.2919C22.5711 38.3182 22.5226 38.3441 22.4738 38.3698L22.4344 38.3909L22.4243 38.3964L22.4198 38.3982L21.9999 37.5833ZM8.70459 10.2639C7.27917 12.0844 6.41659 14.5695 6.41659 17.1637C6.41659 22.9772 10.2813 27.8492 14.3476 31.3472C16.6981 33.353 19.26 35.097 21.988 36.5484L22.2575 36.3981C24.8871 34.9003 27.362 33.1458 29.6458 31.1602C33.725 27.5852 37.5833 22.715 37.5833 17.1627C37.5833 14.5686 36.7207 12.0844 35.2953 10.2639C33.8744 8.44983 31.9311 7.33333 29.7348 7.33333C26.6969 7.33333 24.3448 9.31975 22.8231 12.43L21.9999 14.1139L21.1768 12.4318C19.6551 9.31975 17.3029 7.33333 14.2651 7.33333C12.0688 7.33333 10.1254 8.44983 8.70459 10.2639Z" fill="white"/>
<path d="M22 37.583L22.4198 38.3979L22.0128 38.6069L21.6003 38.408L22 37.583Z" fill="white"/>
</svg>
