<svg width="14" height="14" viewBox="0 0 14 14" fill="none" xmlns="http://www.w3.org/2000/svg">
<path d="M11.3077 1.07692H10.4103V0.538462C10.4103 0.241231 10.169 0 9.87179 0C9.57456 0 9.33333 0.241231 9.33333 0.538462V1.07692H4.66667V0.538462C4.66667 0.241231 4.42544 0 4.12821 0C3.83097 0 3.58974 0.241231 3.58974 0.538462V1.07692H2.69231C0.956308 1.07692 0 2.03323 0 3.76923V11.3077C0 13.0437 0.956308 14 2.69231 14H11.3077C13.0437 14 14 13.0437 14 11.3077V3.76923C14 2.03323 13.0437 1.07692 11.3077 1.07692ZM2.69231 2.15385H3.58974V2.69231C3.58974 2.98954 3.83097 3.23077 4.12821 3.23077C4.42544 3.23077 4.66667 2.98954 4.66667 2.69231V2.15385H9.33333V2.69231C9.33333 2.98954 9.57456 3.23077 9.87179 3.23077C10.169 3.23077 10.4103 2.98954 10.4103 2.69231V2.15385H11.3077C12.4399 2.15385 12.9231 2.63703 12.9231 3.76923V4.30769H1.07692V3.76923C1.07692 2.63703 1.5601 2.15385 2.69231 2.15385ZM11.3077 12.9231H2.69231C1.5601 12.9231 1.07692 12.4399 1.07692 11.3077V5.38462H12.9231V11.3077C12.9231 12.4399 12.4399 12.9231 11.3077 12.9231ZM4.86053 7.71795C4.86053 8.11426 4.5396 8.4359 4.14258 8.4359C3.74627 8.4359 3.42095 8.11426 3.42095 7.71795C3.42095 7.32164 3.73908 7 4.13539 7H4.14258C4.53889 7 4.86053 7.32164 4.86053 7.71795ZM7.73232 7.71795C7.73232 8.11426 7.4114 8.4359 7.01437 8.4359C6.61807 8.4359 6.29274 8.11426 6.29274 7.71795C6.29274 7.32164 6.61088 7 7.00719 7H7.01437C7.41068 7 7.73232 7.32164 7.73232 7.71795ZM10.6041 7.71795C10.6041 8.11426 10.2832 8.4359 9.88617 8.4359C9.48986 8.4359 9.16454 8.11426 9.16454 7.71795C9.16454 7.32164 9.48267 7 9.87898 7H9.88617C10.2825 7 10.6041 7.32164 10.6041 7.71795ZM4.86053 10.5897C4.86053 10.9861 4.5396 11.3077 4.14258 11.3077C3.74627 11.3077 3.42095 10.9861 3.42095 10.5897C3.42095 10.1934 3.73908 9.87179 4.13539 9.87179H4.14258C4.53889 9.87179 4.86053 10.1934 4.86053 10.5897ZM7.73232 10.5897C7.73232 10.9861 7.4114 11.3077 7.01437 11.3077C6.61807 11.3077 6.29274 10.9861 6.29274 10.5897C6.29274 10.1934 6.61088 9.87179 7.00719 9.87179H7.01437C7.41068 9.87179 7.73232 10.1934 7.73232 10.5897ZM10.6041 10.5897C10.6041 10.9861 10.2832 11.3077 9.88617 11.3077C9.48986 11.3077 9.16454 10.9861 9.16454 10.5897C9.16454 10.1934 9.48267 9.87179 9.87898 9.87179H9.88617C10.2825 9.87179 10.6041 10.1934 10.6041 10.5897Z" fill="#0A6BAF"/>
</svg>
